<?xml version="1.0" standalone="no"?>
<!DOCTYPE svg PUBLIC "-//W3C//DTD SVG 20010904//EN"
 "http://www.w3.org/TR/2001/REC-SVG-20010904/DTD/svg10.dtd">
<svg version="1.0" xmlns="http://www.w3.org/2000/svg"
 width="500.000000pt" height="500.000000pt" viewBox="0 0 500.000000 500.000000"
 preserveAspectRatio="xMidYMid meet">

<g transform="translate(0.000000,500.000000) scale(0.100000,-0.100000)"
fill="#000000" stroke="none">
<path d="M2551 4223 c-10 -21 -35 -65 -55 -97 -20 -33 -36 -65 -36 -70 0 -6
28 -52 63 -102 l63 -92 60 105 60 106 -60 93 c-34 51 -64 93 -68 94 -4 0 -16
-17 -27 -37z"/>
<path d="M243 4124 c-16 -7 -17 -56 -1 -72 7 -7 20 -12 30 -12 10 0 32 -13 50
-29 l33 -29 0 -931 c0 -814 -2 -932 -15 -945 -8 -8 -35 -26 -60 -39 -35 -18
-46 -30 -48 -52 -2 -15 2 -32 10 -36 7 -5 104 -9 214 -9 164 0 204 3 214 14
23 28 7 58 -45 86 -31 17 -54 37 -62 56 -9 22 -12 196 -13 747 0 394 3 717 8
717 4 0 26 -24 48 -52 23 -29 84 -103 135 -164 86 -103 228 -273 289 -347 32
-39 153 -184 339 -406 80 -96 182 -218 226 -271 44 -54 115 -139 158 -189 42
-51 77 -96 77 -101 0 -5 -9 -12 -20 -15 -15 -5 -20 -15 -20 -41 l0 -34 295 0
295 0 0 30 c0 26 -7 33 -51 55 -81 41 -79 30 -79 515 l0 420 115 0 115 0 0
-289 c0 -159 -4 -301 -9 -314 -5 -13 -23 -30 -40 -37 -22 -9 -31 -19 -31 -36
l0 -24 192 2 c172 3 193 5 196 20 2 11 -10 24 -36 37 -30 15 -41 28 -46 52 -3
17 -6 157 -6 310 l0 279 105 0 105 0 0 -427 c0 -324 -3 -434 -13 -453 -7 -14
-36 -38 -65 -53 -46 -25 -53 -32 -50 -55 l3 -27 285 -6 c157 -3 295 -2 308 3
16 5 22 15 22 37 0 27 -6 33 -54 56 -41 19 -57 33 -65 57 -7 19 -11 137 -11
319 l0 288 125 145 c69 81 129 146 134 146 9 0 23 -19 129 -175 45 -66 143
-208 217 -315 233 -339 270 -392 280 -409 29 -48 98 -132 115 -141 12 -7 97
-9 232 -8 l213 3 3 32 c3 31 0 34 -60 64 -82 41 -105 69 -314 374 -42 61 -98
142 -125 180 -28 39 -61 86 -74 105 -14 19 -39 55 -56 80 -17 25 -64 92 -104
150 -39 58 -99 143 -131 190 -33 47 -67 97 -76 112 l-17 26 284 330 c286 332
343 387 427 415 39 14 43 18 43 48 l0 34 -245 0 -245 0 -3 -32 c-3 -30 0 -34
37 -49 67 -27 67 -73 0 -157 -31 -39 -320 -360 -429 -477 -14 -15 -99 -109
-190 -209 l-165 -182 -3 458 c-1 252 0 472 3 489 7 38 31 62 82 79 30 10 39
19 41 40 2 16 -2 32 -10 36 -19 13 -565 11 -589 -1 -11 -6 -19 -21 -19 -35 0
-20 10 -29 44 -46 86 -40 81 -11 84 -455 l3 -394 -106 0 -105 0 1 208 c1 114
4 218 8 232 4 17 17 28 39 35 33 9 51 40 35 56 -5 5 -90 8 -194 7 -183 -3
-184 -3 -187 -26 -3 -18 3 -25 28 -33 18 -7 35 -22 41 -36 5 -13 9 -119 9
-234 l0 -209 -115 0 -115 0 0 378 c0 435 -1 430 83 470 42 20 48 26 45 50 l-3
27 -155 8 c-85 4 -236 6 -335 4 -177 -4 -180 -4 -183 -26 -4 -27 14 -51 39
-51 10 0 33 -13 51 -29 l33 -29 3 -696 c1 -383 -1 -696 -5 -696 -5 0 -13 8
-19 18 -7 9 -56 72 -110 138 -55 67 -108 133 -119 147 -48 61 -250 311 -355
441 -63 77 -122 151 -130 162 -8 12 -53 68 -100 125 -47 57 -103 127 -125 155
-148 189 -250 312 -273 329 -23 18 -44 20 -182 22 -85 1 -161 0 -167 -3z"/>
<path d="M1076 1771 c-3 -5 1 -14 9 -21 22 -18 22 -358 0 -366 -39 -15 -6 -24
88 -24 91 0 109 3 156 26 71 36 104 86 109 168 9 146 -96 226 -300 226 -31 0
-59 -4 -62 -9z m222 -68 c47 -29 63 -71 60 -152 -3 -72 -5 -75 -42 -107 -38
-33 -111 -54 -135 -39 -12 7 -16 307 -4 319 10 10 95 -4 121 -21z"/>
<path d="M1563 1713 c-17 -37 -52 -120 -79 -183 -26 -63 -56 -124 -66 -136
-10 -11 -18 -23 -18 -27 0 -4 25 -7 55 -7 54 0 70 11 40 27 -13 8 -13 14 1 51
l17 42 78 0 79 0 16 -37 c11 -28 13 -43 5 -55 -6 -10 -11 -20 -11 -23 0 -3 56
-5 125 -5 114 0 145 7 115 25 -5 3 -10 40 -10 81 0 103 18 100 94 -16 l59 -90
93 0 93 0 48 71 c26 39 57 82 67 96 l20 26 18 -23 c20 -25 26 -134 8 -145 -25
-15 -5 -25 50 -25 55 0 75 10 50 25 -14 9 -13 348 1 362 20 20 -1 33 -51 33
-45 0 -79 -19 -52 -28 8 -2 12 -33 12 -90 l0 -86 -67 74 c-46 50 -68 82 -68
99 0 22 -5 26 -42 29 -53 4 -62 -12 -24 -43 16 -14 48 -48 71 -75 l42 -50 -76
-109 c-42 -60 -82 -111 -90 -114 -8 -3 -21 0 -30 6 -17 13 -106 137 -106 148
0 4 14 21 30 37 53 53 38 142 -30 177 -39 20 -204 32 -215 16 -4 -7 0 -17 9
-24 14 -11 16 -35 14 -187 -3 -167 -4 -175 -23 -175 -25 0 -48 42 -135 239
-36 82 -70 151 -76 153 -6 2 -24 -27 -41 -64z m440 -15 c34 -40 16 -90 -38
-108 -19 -6 -39 -9 -45 -5 -11 7 -14 128 -3 139 12 12 67 -5 86 -26z m-385
-98 c12 -28 22 -55 22 -60 0 -6 -22 -10 -50 -10 -27 0 -50 3 -50 7 0 14 44
113 50 113 3 0 16 -23 28 -50z"/>
<path d="M2634 1769 c-3 -6 -1 -16 5 -22 14 -14 15 -353 1 -362 -25 -15 -5
-25 50 -25 57 0 78 11 45 24 -12 4 -15 24 -15 86 l0 80 90 0 90 0 0 -74 c0
-53 -4 -77 -15 -86 -27 -22 -16 -30 45 -30 55 0 75 10 50 25 -14 9 -13 348 1
362 20 20 -1 33 -51 33 -51 0 -74 -16 -46 -32 12 -7 16 -24 16 -78 l0 -70 -90
0 -90 0 0 70 c0 55 4 71 18 79 15 9 15 12 2 21 -20 13 -97 13 -106 -1z"/>
<path d="M3004 1769 c-4 -6 1 -16 10 -21 14 -8 16 -32 16 -184 0 -146 -2 -176
-15 -180 -33 -13 -12 -24 45 -24 55 0 75 10 50 25 -6 4 -10 74 -10 179 0 181
5 205 42 185 16 -9 18 -25 18 -179 0 -136 -3 -171 -15 -184 -23 -22 -19 -26
31 -26 40 0 45 2 38 18 -5 9 -10 76 -12 147 -3 113 -1 128 11 115 8 -8 65 -76
127 -150 63 -74 118 -135 124 -135 7 0 12 62 14 191 2 155 5 194 17 204 12 10
18 10 30 0 23 -19 22 -346 -2 -372 -15 -17 -14 -18 45 -18 57 0 77 10 52 25
-5 3 -10 32 -10 64 0 47 4 61 23 79 l23 22 67 -95 68 -95 49 0 c28 0 50 3 50
6 0 3 -11 15 -24 25 -14 11 -45 50 -70 87 -25 37 -55 78 -66 92 -11 14 -20 32
-20 40 0 9 32 48 70 87 39 40 67 74 63 76 -5 2 -27 5 -50 6 -42 2 -66 -15 -43
-29 14 -9 -32 -70 -104 -139 l-36 -35 0 81 c0 60 4 84 15 93 26 22 0 28 -107
28 -99 -1 -119 -7 -99 -32 8 -9 11 -55 9 -129 l-3 -116 -83 102 c-155 192
-126 170 -235 174 -65 2 -98 0 -103 -8z"/>
</g>
</svg>
