<?xml version="1.0" standalone="no"?>
<!DOCTYPE svg PUBLIC "-//W3C//DTD SVG 20010904//EN"
 "http://www.w3.org/TR/2001/REC-SVG-20010904/DTD/svg10.dtd">
<svg version="1.0" xmlns="http://www.w3.org/2000/svg"
 width="439.000000pt" height="225.000000pt" viewBox="0 0 439.000000 225.000000"
 preserveAspectRatio="xMidYMid meet">

<g transform="translate(0.000000,225.000000) scale(0.100000,-0.100000)"
fill="#000000" stroke="none">
<path d="M2283 2176 c-24 -40 -43 -76 -43 -80 0 -17 123 -187 131 -179 13 13
109 183 109 193 0 5 -19 38 -42 74 -39 61 -44 66 -77 66 -34 0 -38 -4 -78 -74z"/>
<path d="M17 2153 c-4 -3 -7 -17 -7 -30 0 -18 10 -28 43 -42 23 -10 51 -28 62
-41 20 -22 20 -36 20 -950 0 -1037 7 -943 -77 -986 -43 -22 -49 -29 -46 -52
l3 -27 220 0 220 0 3 27 c3 24 -3 30 -48 53 -37 19 -55 35 -66 60 -12 29 -14
153 -14 750 0 393 4 715 8 715 4 0 41 -41 82 -92 41 -50 104 -126 140 -169 36
-43 113 -135 171 -206 202 -242 274 -329 582 -698 304 -364 309 -370 283 -379
-21 -8 -26 -16 -26 -43 l0 -33 293 2 292 3 3 27 c3 24 -3 30 -48 53 -82 41
-80 30 -80 515 l0 420 115 0 115 0 0 -289 c0 -168 -4 -301 -10 -316 -6 -15
-22 -30 -40 -36 -22 -8 -30 -17 -30 -35 l0 -24 192 2 c175 3 193 5 196 21 3
12 -7 22 -33 32 -21 9 -40 26 -45 41 -6 14 -10 153 -10 315 l0 289 105 0 105
0 0 -434 c0 -492 5 -463 -85 -505 -40 -19 -46 -25 -43 -49 l3 -27 305 0 305 0
3 31 c3 28 -2 33 -55 60 -39 20 -59 37 -64 54 -4 14 -7 156 -8 317 l-1 292 67
78 c37 43 96 111 131 151 l65 73 16 -25 c25 -38 184 -270 262 -381 38 -55 94
-136 124 -180 30 -44 67 -98 82 -120 16 -22 72 -104 126 -182 54 -79 108 -150
120 -158 17 -12 55 -15 184 -15 l163 0 0 61 c0 46 -4 66 -18 78 -26 24 -96
111 -125 156 -14 22 -42 63 -61 90 -45 62 -75 105 -154 220 -34 50 -86 124
-115 165 -386 554 -377 541 -367 559 5 9 19 27 32 41 13 13 68 77 123 140 429
498 454 524 550 557 43 14 46 17 43 47 l-3 31 -243 3 c-264 3 -262 3 -248 -53
4 -16 13 -25 26 -25 11 0 30 -10 41 -21 17 -17 20 -29 16 -56 -7 -41 -42 -88
-174 -232 -53 -58 -135 -148 -182 -200 -47 -52 -115 -126 -151 -166 -36 -39
-105 -114 -153 -168 -49 -53 -108 -118 -132 -144 l-44 -48 0 475 c-1 360 2
481 12 500 7 14 35 37 62 51 39 19 51 31 53 52 4 33 29 31 -333 28 -193 -2
-272 -6 -277 -14 -18 -28 -7 -48 35 -66 24 -11 54 -31 65 -46 22 -27 22 -34
22 -416 l0 -389 -105 0 -105 0 0 209 c0 115 4 221 9 234 6 14 23 29 40 35 36
13 51 40 30 53 -8 5 -95 8 -194 6 -179 -2 -180 -2 -183 -25 -3 -18 3 -25 28
-33 18 -7 35 -22 41 -36 5 -13 9 -119 9 -234 l0 -209 -115 0 -115 0 0 383 c0
365 1 383 20 415 13 20 37 40 66 52 40 18 45 23 42 47 l-3 28 -337 3 c-317 2
-338 1 -338 -15 0 -27 12 -39 51 -56 20 -8 45 -27 57 -42 l22 -28 0 -688 c0
-379 -4 -689 -8 -689 -5 0 -22 19 -40 43 -17 23 -63 80 -101 127 -39 47 -95
117 -125 155 -47 60 -96 120 -241 300 -13 17 -66 82 -117 145 -51 63 -102 127
-113 141 -11 15 -83 105 -160 200 -77 96 -179 221 -225 279 -47 58 -94 113
-105 122 -17 15 -44 17 -186 18 -91 0 -169 -3 -172 -7z"/>
</g>
</svg>
